<svg xmlns="http://www.w3.org/2000/svg" width="65.5" height="65.5" viewBox="0 0 65.5 65.5"><path fill="#EDEEEE" d="M32.75 65.249C14.831 65.249.253 50.671.253 32.75.253 14.83 14.831.251 32.75.251c17.92 0 32.499 14.579 32.499 32.499S50.67 65.249 32.75 65.249zm0-61.998c-16.265 0-29.497 13.233-29.497 29.499S16.485 62.249 32.75 62.249c16.266 0 29.499-13.232 29.499-29.499 0-16.266-13.233-29.499-29.499-29.499z"/><path fill="#E6C9A9" d="M47.536 36.883c-.092-.068-.967-.57-1.396-.811-.004-7.709-6.246-13.958-13.939-13.958-7.7 0-13.938 6.254-13.938 13.961v.059s0 .01.002.016c0 .162 0 .318.008.482-.536.293-1.41.779-1.495.854-.1.082-.174.285-.069 1.236.08.713.33 1.811.584 2.633.168.529.338.945.461 1.074.365.061 1.159-.045 1.589-.164-.019-.08-.043-.162-.062-.246.684 2.537 1.809 5.305 3.643 7.016a14.838 14.838 0 0 0 8.543 3.938s.282.076.766.055c.478.021.763-.055.763-.055a14.797 14.797 0 0 0 8.539-3.938c1.921-1.789 3.065-4.729 3.736-7.352-.003.02-.009.035-.013.053.448.094 1.109.16 1.432.098.15-.16.34-.723.515-1.395.191-.748.36-1.641.418-2.275.084-.984.01-1.195-.087-1.281z"/><path fill="#D8D5D5" d="M18.398 33.913s11.169-2.77 27.55-.301l-.721 6.346-3.003 1.977-7.45-1.256-1.218-3.99-2.961-.074-1.142 4.18-7.676 1.711-3.043-2.016-.336-6.577z" opacity=".6"/><path fill="#FFF" d="M39.146 35.131a.498.498 0 1 1-.998 0 .499.499 0 1 1 .998 0z"/><path fill="#353434" d="M39.755 36.602c.054-.152.072-.357.048-.635-.101-1.059-.976-1.811-1.759-1.711-.693.094-1.105.834-1.095 1.736a2.99 2.99 0 0 0 .022.418c.138 1.055.777.9 1.562.799l.227-.029c.086-.01.171-.02.251-.037.761-.105 1.305-.195 1.761-.059-.006-.003-.319-.433-1.017-.482zm-1.154-1.781c.221-.031.414.107.429.299.024.189-.136.359-.356.391-.222.025-.418-.109-.438-.299-.024-.192.141-.364.365-.391zm-1.644 1.344z"/><circle fill="#FFF" cx="26.746" cy="35.168" r=".498"/><path fill="#353434" d="M23.83 37.124c.457-.139.998-.047 1.757.061.08.014.166.023.252.033.076.01.149.02.232.027.781.104 1.422.26 1.554-.793.022-.141.026-.287.026-.422.011-.898-.405-1.641-1.098-1.736-.782-.1-1.658.654-1.756 1.717-.028.273-.007.475.048.627-.699.05-1.012.48-1.015.486zm3.336-1.874c-.024.188-.22.316-.438.295-.223-.023-.383-.201-.367-.391.026-.186.221-.324.441-.295.218.024.381.202.364.391zm.459 1.129c.008-.057.017-.121.019-.18a1.74 1.74 0 0 1-.019.18z"/><path fill="#545960" d="M46.911 32.436a70.061 70.061 0 0 0-6.156-1.027c-3.424-.4-7.302-.599-13.63-.229-6.324.369-9.776 1.266-9.776 1.266l1.108 8.313 3.254 2.281 8.202-1.824 1.207-3.99c.035-.1.115-.178.219-.189.309-.051.575-.074.804-.074.227 0 .496.023.803.074.103.012.185.09.212.189l1.245 4.09 8.248.936 3.16-2.215 1.1-7.601zm-2.265 7.117l-2.238 1.562a.253.253 0 0 1-.183.049l-6.745-.768a.267.267 0 0 1-.228-.189l-1.219-3.998c-.322-.084-1.16-.281-1.891-.281-.734 0-1.567.197-1.895.281l-1.212 3.998a.292.292 0 0 1-.138.162c-.021.01-.041.02-.064.021l-6.744 1.502c-.022.004-.044.008-.06.008a.254.254 0 0 1-.156-.051l-2.236-1.566a.259.259 0 0 1-.115-.186l-.736-5.625c2.18-.41 7.297-1.225 13.397-1.225 5.989 0 11.047.799 13.296 1.223l-.721 4.896a.263.263 0 0 1-.112.187z"/><path fill="#A41E28" d="M46.417 45.309a.079.079 0 0 0-.045.021c-.035.014-.064.031-.095.039-.028.014-.047.025-.076.037-.021.01-.041.018-.06.029l-.093.043-.037.02-.103.049-.019.014a.627.627 0 0 0-.109.049c-.006.004-.006.006-.013.01-.078.037-.154.072-.228.111-.024.016-.052.027-.076.041-.449.234-1.041.35-1.803.35-.45 0-.891-.037-1.385-.08a97.837 97.837 0 0 1-2.662-.289l-.127-.01-.098-.086c-.018-.01-1.475-1.172-2.651-2.096-.046-.037-.091-.076-.134-.109-.124-.107-.124-.107-.197-.107-.377 0-1.472.342-3.875 1.088l-.151.047-.141-.055c-.019-.004-1.597-.588-3.487-.588-.156 0-.309.002-.459.01-.19.01-1.249.516-2.612 2.662l-.087.139-.155.052c-.019.008-2.363.76-4.841 1.467l-.162.047-.149-.068c-.017-.004-.676-.311-1.425-.654-.104-.088-.197-.17-.281-.246a8.61 8.61 0 0 1-.205-.094c.04.055.077.109.111.168.131.189.268.393.413.596.266.383.542.779.823 1.15.125.168.249.328.368.488.987 1.271 2.235 2.451 4.626 2.451.304 0 .619-.02.947-.059.078-.012.149-.014.223-.023.072-.006.14-.018.21-.023 2.08-.242 2.646-.342 2.965-.395.081-.018.156-.029.227-.039l.091-.018c.014 0 .718-.09 1.407-.422.473-.23.936-.574 1.169-1.086.575-1.287.692-1.598.695-1.611l.203-.533a.24.24 0 0 1 .068-.074v.002a.29.29 0 0 1 .039.025l.123.166h.002c.022.02.043.035.062.051-.014-.008-.028-.021-.039-.029l.31.377c.004 0 .014.014.034.039.165.188.836.967 1.628 1.754.608.602 1.335.906 2.175.906.285 0 .586-.041.889-.113.283-.066.588-.141.895-.219.933-.219 1.961-.461 2.646-.641.046-.016.091-.023.132-.037.095-.023.188-.045.264-.066.126-.039.259-.068.403-.102.825-.193 1.959-.457 2.56-1.66.165-.33.355-.699.549-1.07.262-.521.541-1.051.793-1.529.036-.076.077-.148.11-.217.022-.041.046-.078.062-.115l-.142.065zm-12.334 3.275c.056.039.113.086.167.123-.05-.035-.111-.082-.167-.123zm1.636 1.084c.128.064.261.133.379.172-.119-.039-.251-.107-.379-.172zm9.437-3.06l.002-.004-.002.004.002-.004v.004h-.002z"/><path fill="#9A7F62" d="M29.812 42.239s1.184.74 2.36.74c1.179 0 2.543-1.053 2.543-1.053s-.245 1.736-2.522 1.736c-2.28.001-2.381-1.423-2.381-1.423z"/><path fill="#A99580" d="M45.389 41.215c-.044.174-.085.346-.132.521.448.094 1.109.16 1.432.098.15-.16.34-.723.515-1.395-.4.378-1.092.895-1.815.776zm-28.097.141c.168.529.338.945.461 1.074.365.061 1.159-.045 1.589-.164-.019-.08-.043-.162-.062-.246-.757.117-1.489-.281-1.988-.664z" opacity=".4"/><path fill="#D6BE36" d="M47.777 28.334a4.99 4.99 0 0 0-.044-.363c-.01-.083-.028-.172-.045-.257a7.158 7.158 0 0 0-1.086-.71 14.869 14.869 0 0 0-1.299-.635c-.078-.034-.248-.104-.248-.104l-.111-.405s-.007-.021-.013-.029c-2.008-4.929-6.292-8.293-11.139-8.986a13.843 13.843 0 0 0-1.043-.105 14.467 14.467 0 0 0-1.063-.021C26 16.831 20.865 20.64 18.8 26.375c-.068.225-.095.402-.338.527-.432.221-.865.435-1.273.682a7.86 7.86 0 0 0-1.061.753c-.011.086-.021.177-.03.261-.009.121-.022.236-.029.36-.01.138-.019.271-.019.407 0 .107-.004.218 0 .323a10.222 10.222 0 0 0 .119 1.46c.053.351.125.708.213 1.057.028.122.068.244.102.363.072.236.145.463.236.68.041.096.078.193.127.285.141.025.311.051.492.08l.367-.674s3.359-1.826 13.83-2.036c0 0 7.746-.412 14.774 1.393 0 0 .411.139.459.488a.533.533 0 0 1-.173.489c.188-.053.662-.518.699-.625a7.73 7.73 0 0 0 .313-1.149 10.454 10.454 0 0 0 .218-2.436 8.31 8.31 0 0 0-.049-.729z"/><path fill="#C1A82F" d="M27.207 29.118s-4.351.541-4.509.563c-.148.02-.335-.082-.404-.255-.375-1.004-.348-3.001-.348-3.001.031-1.208.304-2.146.724-3.149.419-1.004 4.531-3.182 4.415-2.687-.304 1.243-.508 3.178-.346 5.544.129 1.849.468 2.985.468 2.985zm9.452-.208l4.524.441c.147.02.335-.085.395-.26.352-1.018.271-3.015.271-3.015-.065-1.203-.358-2.134-.809-3.131-.442-.987-4.61-3.056-4.477-2.565.327 1.236.588 3.166.489 5.532-.076 1.849-.393 2.998-.393 2.998z"/><path fill="#A41E28" d="M28.75 19.552l.041 2.087 1.264-.028-.019-.821 1.185-.026.091 4.547-.683.014.032 1.394 2.764-.051-.028-1.397-.68.014-.086-4.547 1.181-.022.016.823 1.267-.028-.039-2.081z"/><path fill="#B59F31" d="M47.203 30.051c-1.803-.619-4.615-1.462-6.664-1.738.009-.009-5.216-.589-8.222-.461-9.247.398-14.843 2.187-16.262 2.863 0 .015.046.385.046.393.053.392.102.609.169.874.029.126.064.256.111.427.069.27.268 1.135.353 1.395.045.109.083.217.128.326.144.031.312.061.494.094l.371-.775s3.352-2.124 13.822-2.342c0 0 7.744-.459 14.777 1.652l.273.549c.281-.047.578-.348.71-.747.092-.253.154-.527.212-.797.037-.177.069-.354.101-.532.032-.178.058-.358.082-.545.025-.149-.09-.497-.501-.636z"/><path fill="#2EB459" d="M44.775 29.307c-4.472 0-8.109-3.637-8.109-8.105 0-4.472 3.638-8.109 8.109-8.109 4.469 0 8.104 3.638 8.104 8.109.001 4.468-3.635 8.105-8.104 8.105z"/><path fill="#FFF" d="M44.775 13.615a7.585 7.585 0 0 1 0 15.168 7.584 7.584 0 1 1 0-15.168m0-1.046c-4.76 0-8.632 3.873-8.632 8.632 0 4.758 3.872 8.628 8.632 8.628 4.757 0 8.627-3.87 8.627-8.628 0-4.76-3.87-8.632-8.627-8.632z"/><path fill="#FFF" d="M47.436 17.325l-3.312 5.201a.393.393 0 0 1-.541.121l-1.887-1.22a.389.389 0 0 0-.537.119l-.747 1.169a.395.395 0 0 0 .118.541l2.952 1.921c.177.118.496.176.707.131l.445-.098c.21-.045.477-.227.592-.412l4.022-6.307a.4.4 0 0 0-.121-.543l-1.154-.739a.39.39 0 0 0-.537.116z"/></svg>